<?xml version="1.0" encoding="utf-8"?>
<!-- Generator: Adobe Illustrator 19.0.1, SVG Export Plug-In . SVG Version: 6.00 Build 0)  -->
<svg version="1.1" id="Layer_2" xmlns="http://www.w3.org/2000/svg" xmlns:xlink="http://www.w3.org/1999/xlink" x="0px" y="0px"
	 width="509.997px" height="450.21px" viewBox="-161.03 69.39 509.997 450.21"
	 enable-background="new -161.03 69.39 509.997 450.21" xml:space="preserve">
<g>
	<defs>
		<rect id="SVGID_1_" x="-161.03" y="69.39" width="509.997" height="450.21"/>
	</defs>
	<clipPath id="SVGID_2_">
		<use xlink:href="#SVGID_1_"  overflow="visible"/>
	</clipPath>
	<g clip-path="url(#SVGID_2_)">
		<path fill="#0E0E2E" d="M149.097,529.6h41.768c-45.131-39.998-58.404-108.136-61.413-127.604
			c-0.885-4.602-3.717-6.194-3.717-6.371l-27.255,3.894c0.177,1.593,4.071,39.29,21.946,80.881
			C128.39,498.982,137.947,515.441,149.097,529.6z"/>
		<path fill="#0F2334" d="M128.921,529.6v-127.25l0,0c0,0-0.708-6.725-5.486-7.61c-21.769-5.132-43.715-7.61-67.076-7.61
			c-24.424,0-39.821,2.124-63.537,6.725c-0.885,0.177-9.026,11.15-9.026,12.035V529.6H128.921z"/>
		<path fill="#FFFFFF" d="M55.473,473.673l34.335-85.66c-9.734-4.602-56.103-5.309-68.492,0.354L55.473,473.673z"/>
		<polygon fill="#EAEAEA" points="36.89,426.773 55.65,473.673 74.41,426.773 55.65,412.438 		"/>
		<path fill="#FFBD8E" d="M75.649,391.377c0,10.619-8.672,19.291-19.291,19.291l0,0c-10.619,0-19.291-8.672-19.291-19.291v-64.776
			c0-10.619,8.672-19.291,19.291-19.291l0,0c10.619,0,19.291,8.672,19.291,19.291V391.377z"/>
		<path fill="#F2A47D" d="M54.588,391.2c0-10.619,8.672-19.291,19.291-19.291c0.531,0,1.062,0,1.77,0v-45.131
			c0-10.619-8.672-19.291-19.291-19.291c-10.619,0-19.291,8.672-19.291,19.291v64.776c0,10.088,7.787,18.406,17.698,19.291V391.2
			H54.588z"/>
		<polygon fill="#DD312C" points="53.172,431.021 48.393,455.621 55.65,473.673 62.906,455.621 58.127,431.021 65.207,419.871 
			55.65,412.438 46.093,419.694 		"/>
		<path fill="#929497" d="M61.49,491.903c0,2.655-2.124,4.956-4.956,4.956c-2.655,0-4.956-2.124-4.956-4.956
			c0-2.655,2.124-4.956,4.956-4.956C59.189,486.947,61.49,489.248,61.49,491.903z"/>
		<path fill="#0E0E2E" d="M120.602,457.214c0.885,3.009-0.885,6.194-3.894,7.079l-16.99,4.425c-3.009,0.885-6.194-0.885-7.079-3.894
			l0,0c-0.885-3.009,0.885-6.194,3.894-7.079l16.99-4.248C116.709,452.436,119.717,454.205,120.602,457.214L120.602,457.214z"/>
		<path fill="#FFBD8E" d="M27.509,306.425l-18.583,3.363c-7.964,1.416-13.451,9.026-11.858,17.167
			c1.416,7.964,9.026,13.451,17.167,11.858l23.716-4.248L27.509,306.425z"/>
		<path fill="#FFBD8E" d="M106.444,263.949c-6.548-28.494-31.68-46.9-60.174-40.352c-28.494,6.371-46.192,34.866-39.644,63.183
			l14.69,39.998c6.548,30.087,78.226,35.22,78.226,35.22c17.698-4.071,25.485-17.875,22.3-32.034L106.444,263.949z"/>
		<path fill="#FFA97F" d="M37.067,226.606c-13.805,12.389-30.795,34.689-26.37,53.98l12.92,56.28
			c10.619,46.015,75.926,25.309,75.926,25.309l-9.557-37.697l11.504-8.141l-17.167-30.972l-14.159-61.767L37.067,226.606z"/>
		<path fill="#0E0E2E" d="M34.589,304.478c-1.77-7.61,3.009-15.22,10.619-16.99l-7.787-33.627l-27.078,6.194l12.566,54.511
			l13.274-3.009L34.589,304.478z"/>
		<path fill="#0E0E2E" d="M43.261,280.054c-1.77-7.61,3.009-15.22,10.619-16.99l-7.787-33.627l-27.078,6.194l12.566,54.511
			l13.274-3.009L43.261,280.054z"/>
		<path fill="#0E0E2E" d="M37.244,315.097c1.062,4.779-1.947,9.38-6.548,10.442l0,0c-4.779,1.062-9.38-1.947-10.442-6.548
			L8.749,269.082c-1.062-4.779,1.947-9.38,6.548-10.442l0,0c4.779-1.062,9.38,1.947,10.442,6.548L37.244,315.097z"/>
		<path fill="#0F2334" d="M88.391,239.525l-41.768,9.557c0,0.354,0.177,0.531,0.177,0.885l0.708,3.363
			c1.239,5.663-3.363,9.734-8.495,10.973l-4.425,1.062c3.54,10.265,14.159,16.459,24.955,14.513l2.655-0.708
			c12.212-2.832,21.238-13.274,21.415-25.309C83.613,248.552,85.383,243.596,88.391,239.525L88.391,239.525z"/>
		<path fill="#0E0E2E" d="M105.559,290.319c0.531,2.478-0.885,4.956-3.363,5.486l0,0c-2.478,0.531-4.956-0.885-5.486-3.363l0,0
			c-0.531-2.478,1.062-4.956,3.363-5.486l0,0C102.55,286.249,105.028,287.842,105.559,290.319L105.559,290.319z"/>
		<path fill="#0E0E2E" d="M72.286,298.638c0.531,2.478-0.885,4.956-3.363,5.486l0,0c-2.478,0.531-4.956-0.885-5.486-3.363l0,0
			c-0.531-2.478,0.885-4.956,3.363-5.486l0,0C69.277,294.567,71.755,296.16,72.286,298.638L72.286,298.638z"/>
		<path fill="#0E0E2E" d="M-27.532,295.275c6.194,15.928,20.884,25.663,35.22,22.3c14.336-3.363,23.362-18.583,21.946-35.574
			L-27.532,295.275z"/>
		<path fill="#0F2334" d="M112.284,242.18c1.416,9.911-4.956,19.291-14.867,21.592c-7.787,1.77-15.751-1.416-20.176-7.61
			c-2.124-3.009-5.132-5.132-8.849-4.425c-4.071,0.885-30.795,7.079-40.706,9.38c-8.849,1.947-14.336,9.911-14.336,18.583
			c-0.177,9.734-7.433,18.229-17.344,20.53l-2.124,0.531c-8.672,1.593-17.344-3.363-20.176-11.681l3.54-0.885
			c4.248-0.885,7.964-4.248,6.902-8.849c0-0.177-0.708-2.832-0.708-2.832c-5.309-23.185,9.203-46.369,32.388-51.679l51.679-11.858
			c19.999-4.602,39.998,7.964,44.6,27.963C112.284,241.295,112.284,241.826,112.284,242.18z"/>
		<path fill="#0E0E2E" d="M61.844,293.505l16.282-7.256c-2.478-4.248-7.61-6.017-12.212-3.894l-16.282,7.256
			C52.11,293.859,57.243,295.452,61.844,293.505z"/>
		<path fill="#0E0E2E" d="M100.426,274.745l12.743,0.708c-0.708,4.779-4.956,8.318-9.911,7.964l-12.743-0.708
			C91.223,277.931,95.471,274.391,100.426,274.745z"/>
		<path fill="#FFA97F" d="M19.014,315.805l-8.141,1.416c-3.894,0.708-6.371,4.248-5.663,8.141c0.708,3.894,4.248,6.371,8.141,5.663
			l8.849-1.593L19.014,315.805z"/>
		<g>
			<path fill="#E09070" d="M80.427,344.83l26.37-8.849c0,0,0.354,4.248-10.796,7.964C84.852,347.839,80.427,344.83,80.427,344.83z"
				/>
		</g>
		<path fill="#3AA758" d="M-32.311,344.299l-16.459,7.61c-3.54-2.301-7.433-4.071-11.858-5.132
			c-23.008-6.194-46.723,7.433-52.918,30.441c-6.194,23.008,7.433,46.723,30.441,52.918c23.008,6.194,46.723-7.433,52.918-30.441
			c3.54-12.92,0.708-26.193-6.548-36.458L-32.311,344.299z"/>
		<path fill="#4689F2" d="M302.01,171.033c-24.601,1.239-43.715,22.123-42.476,46.9c0.177,4.602,1.062,9.026,2.655,13.097
			l-11.327,15.044l20.176-0.354c8.672,9.557,21.415,15.397,35.397,14.69c24.601-1.239,43.715-22.123,42.476-46.9
			C347.671,188.908,326.61,169.971,302.01,171.033z"/>
		<path fill="#3AA758" d="M272.1,269.966c-23.893-10.973-52.21-0.708-63.183,23.185c-2.124,4.425-3.363,9.026-4.071,13.628
			l-18.052,8.495l19.114,9.734c3.363,13.274,12.566,25.132,26.193,31.326c23.893,10.973,52.21,0.708,63.183-23.185
			C306.434,309.434,295.992,281.116,272.1,269.966z"/>
		<path fill="#F8BB2D" d="M221.128,358.989c-14.867-7.964-31.857-8.141-46.369-2.124l-21.946-10.796l4.602,22.3
			c-3.717,3.717-7.079,8.141-9.557,12.92c-14.159,26.37-4.071,59.112,22.3,73.271c26.37,14.159,59.112,4.071,73.271-22.3
			C257.587,405.889,247.499,372.97,221.128,358.989z"/>
		<path fill="#E7433C" d="M163.963,265.011c10.796,7.787,24.955,10.796,38.936,7.079c24.601-6.548,39.113-32.034,32.565-56.634
			c-6.548-24.601-32.034-39.113-56.634-32.565c-24.601,6.548-39.113,32.034-32.565,56.634c1.239,4.602,3.186,8.849,5.486,12.566
			l-8.141,17.698L163.963,265.011z"/>
		<path fill="#F8BB2D" d="M193.165,148.025l-8.849,19.645l22.477-5.309c12.035,8.495,27.786,11.858,43.184,7.61
			c27.255-7.433,43.361-35.574,35.927-62.829c-7.61-27.432-35.75-43.361-63.006-35.927c-27.255,7.433-43.361,35.574-35.927,62.829
			C188.387,139.176,190.511,143.955,193.165,148.025z"/>
		<path fill="#3AA758" d="M172.458,131.035c-6.017-23.893-30.087-38.405-53.98-32.388s-38.405,30.264-32.388,54.157
			c3.363,13.451,12.566,23.893,24.247,29.379l5.486,19.291l10.973-15.221c4.425,0.177,8.849-0.177,13.274-1.239
			C163.963,179.174,178.476,154.928,172.458,131.035z"/>
		<path fill="#4689F2" d="M-3.462,87.674c-23.362,14.867-30.441,45.839-15.574,69.377c8.318,13.274,21.946,21.238,36.281,23.008
			l12.743,18.76l6.548-20.176c4.779-1.239,9.38-3.363,13.628-6.017c23.362-14.867,30.441-45.839,15.574-69.377
			C51.048,79.887,20.076,72.808-3.462,87.674z"/>
		<path fill="#E7433C" d="M-23.815,185.9c2.832-26.901-16.636-51.148-43.538-54.157c-26.901-2.832-51.148,16.636-53.98,43.538
			c-2.832,27.078,16.636,51.148,43.538,54.157c15.221,1.593,29.556-3.894,39.644-13.805l22.123,1.593l-11.504-17.167
			C-25.585,195.634-24.346,190.855-23.815,185.9z"/>
		<path fill="#F8BB2D" d="M-59.212,290.673l18.052-14.159l-20.707-5.133c-1.593-4.779-3.894-9.203-7.079-13.451
			c-16.636-22.654-48.493-27.786-71.147-11.15s-27.786,48.493-11.15,71.147s48.493,27.786,71.147,11.15
			C-67.176,319.699-59.92,305.363-59.212,290.673z"/>
		<g>
			<path fill="#FFFFFF" d="M-99.918,396.509c0-0.531,0.177-1.062,0.531-1.416c0.354-0.354,0.885-0.531,1.593-0.531
				c0.531,0,1.062,0.177,1.593,0.531c0.354,0.354,0.531,0.885,0.531,1.416c0,0.531-0.177,1.062-0.531,1.416
				c-0.354,0.354-0.885,0.531-1.593,0.531c-0.531,0-1.062-0.177-1.593-0.531C-99.741,397.571-99.918,397.217-99.918,396.509z"/>
			<path fill="#FFFFFF" d="M-79.742,391.554c0,2.301-0.531,4.071-1.416,5.309s-2.301,1.947-4.071,1.947
				c-1.593,0-2.832-0.531-3.717-1.77l-0.177,1.416h-3.363v-19.999h3.717v7.256c0.885-1.062,1.947-1.593,3.363-1.593
				c1.77,0,3.009,0.708,4.071,1.947c1.062,1.239,1.416,3.009,1.416,5.309v0.177H-79.742z M-83.459,391.2
				c0-1.416-0.177-2.478-0.708-3.186c-0.531-0.708-1.062-1.062-1.947-1.062c-1.239,0-1.947,0.531-2.478,1.416v5.663
				c0.531,1.062,1.239,1.416,2.478,1.416s1.947-0.531,2.478-1.77C-83.459,393.323-83.459,392.438-83.459,391.2z"/>
			<path fill="#FFFFFF" d="M-77.441,380.581c0-0.531,0.177-1.062,0.531-1.416c0.354-0.354,0.885-0.531,1.593-0.531
				c0.708,0,1.239,0.177,1.593,0.531c0.354,0.354,0.531,0.885,0.531,1.416c0,0.531-0.177,1.062-0.531,1.416
				c-0.354,0.354-0.885,0.531-1.593,0.531c-0.708,0-1.062-0.177-1.593-0.531C-77.264,381.642-77.441,381.289-77.441,380.581z
				 M-73.371,398.456h-3.717v-14.159h3.717V398.456z"/>
			<path fill="#FFFFFF" d="M-65.052,392.792l-1.416,1.416v4.248h-3.717v-19.999h3.717v11.15l0.708-0.885l3.54-4.248h4.602
				l-5.132,5.84l5.486,8.318h-4.248L-65.052,392.792z"/>
			<path fill="#FFFFFF" d="M-49.832,398.633c-2.124,0-3.717-0.708-5.132-1.947c-1.239-1.239-1.947-3.009-1.947-5.132V391.2
				c0-1.416,0.354-2.655,0.885-3.717c0.531-1.062,1.239-1.947,2.301-2.655c1.062-0.531,2.124-0.885,3.363-0.885
				c1.947,0,3.363,0.531,4.602,1.77c1.062,1.239,1.593,3.009,1.593,5.132v1.593h-8.849c0.177,0.885,0.531,1.593,1.062,2.301
				c0.531,0.531,1.416,0.885,2.301,0.885c1.416,0,2.655-0.531,3.363-1.593l1.77,2.124c-0.531,0.885-1.416,1.416-2.301,1.947
				C-47.708,398.633-48.593,398.633-49.832,398.633z M-50.186,387.129c-0.708,0-1.416,0.177-1.77,0.708
				c-0.531,0.531-0.708,1.239-0.885,2.124h5.309v-0.177c0-0.885-0.177-1.416-0.708-1.947
				C-48.77,387.306-49.301,387.129-50.186,387.129z"/>
		</g>
		<g>
			<path fill="#FFFFFF" d="M163.255,234.039c0-0.531,0.177-1.062,0.531-1.416c0.354-0.354,0.885-0.531,1.593-0.531
				s1.062,0.177,1.593,0.531c0.354,0.354,0.531,0.885,0.531,1.416c0,0.531-0.177,1.062-0.531,1.416
				c-0.354,0.354-0.885,0.531-1.593,0.531s-1.062-0.177-1.593-0.531C163.609,235.101,163.255,234.57,163.255,234.039z"/>
			<path fill="#FFFFFF" d="M178.83,231.915c0-0.531-0.177-0.885-0.708-1.062c-0.531-0.354-1.239-0.531-2.301-0.708
				c-3.363-0.708-5.132-2.124-5.132-4.425c0-1.239,0.531-2.301,1.593-3.186c1.062-0.885,2.478-1.239,4.071-1.239
				c1.77,0,3.363,0.354,4.425,1.239c1.062,0.885,1.593,1.947,1.593,3.363h-3.894c0-0.531-0.177-1.062-0.531-1.416
				c-0.354-0.354-0.885-0.531-1.593-0.531c-0.708,0-1.062,0.177-1.416,0.354c-0.354,0.354-0.531,0.708-0.531,1.062
				s0.177,0.708,0.531,1.062c0.354,0.177,1.062,0.531,2.124,0.708c0.885,0.177,1.77,0.354,2.478,0.708
				c1.947,0.708,3.009,1.947,3.009,3.894c0,1.239-0.531,2.301-1.77,3.186c-1.062,0.885-2.655,1.239-4.425,1.239
				c-1.239,0-2.301-0.177-3.186-0.708c-0.885-0.354-1.593-1.062-2.124-1.77c-0.531-0.708-0.885-1.593-0.885-2.478h3.717
				c0,0.708,0.354,1.239,0.708,1.593c0.531,0.354,1.062,0.531,1.947,0.531c0.708,0,1.239-0.177,1.593-0.354
				C178.653,232.623,178.83,232.269,178.83,231.915z"/>
			<path fill="#FFFFFF" d="M185.024,217.757c0-0.531,0.177-1.062,0.531-1.416c0.354-0.354,0.885-0.531,1.593-0.531
				s1.239,0.177,1.593,0.531c0.354,0.354,0.531,0.885,0.531,1.416s-0.177,1.062-0.531,1.416c-0.354,0.354-0.885,0.531-1.593,0.531
				s-1.239-0.177-1.593-0.531S185.024,218.288,185.024,217.757z M189.095,235.809h-3.894v-14.336h3.894V235.809z"/>
			<path fill="#FFFFFF" d="M196.882,217.934v3.54h2.478v2.832h-2.478v7.256c0,0.531,0.177,0.885,0.354,1.062
				c0.177,0.177,0.531,0.354,1.239,0.354c0.354,0,0.885,0,1.062-0.177v3.009c-0.708,0.177-1.593,0.354-2.301,0.354
				c-2.655,0-4.071-1.416-4.071-4.071v-7.787h-2.124v-2.832h2.124v-3.54C193.165,217.934,196.882,217.934,196.882,217.934z"/>
			<path fill="#FFFFFF" d="M208.032,236.163c-2.124,0-3.894-0.708-5.132-1.947c-1.239-1.239-1.947-3.009-1.947-5.133v-0.354
				c0-1.416,0.354-2.655,0.885-3.894c0.531-1.062,1.416-1.947,2.301-2.655c1.062-0.531,2.124-0.885,3.54-0.885
				c1.947,0,3.54,0.708,4.602,1.947c1.062,1.239,1.77,3.009,1.77,5.309v1.593h-9.203c0.177,0.885,0.531,1.77,1.062,2.301
				c0.708,0.531,1.416,0.885,2.301,0.885c1.416,0,2.655-0.531,3.54-1.593l1.947,2.124c-0.531,0.885-1.416,1.416-2.301,1.947
				C210.333,235.809,209.271,236.163,208.032,236.163z M207.678,224.305c-0.708,0-1.416,0.177-1.77,0.708
				c-0.531,0.531-0.708,1.239-0.885,2.301h5.309v-0.354c0-0.885-0.177-1.593-0.708-1.947
				C209.094,224.482,208.386,224.305,207.678,224.305z"/>
		</g>
		<g>
			<path fill="#FFFFFF" d="M-100.095,186.254c0-0.708,0.177-1.239,0.708-1.593c0.531-0.354,1.062-0.708,1.593-0.708
				c0.708,0,1.239,0.177,1.77,0.708c0.531,0.354,0.708,0.885,0.708,1.593s-0.177,1.239-0.708,1.593
				c-0.354,0.354-1.062,0.531-1.77,0.531s-1.239-0.177-1.77-0.531C-99.918,187.493-100.095,186.962-100.095,186.254z"/>
			<path fill="#FFFFFF" d="M-92.485,180.413c0-1.593,0.354-3.009,0.885-4.071c0.531-1.239,1.416-2.124,2.655-2.832
				c1.062-0.708,2.478-1.062,3.894-1.062c2.124,0,3.894,0.708,5.132,1.947c1.416,1.239,2.124,3.009,2.301,5.309v1.062
				c0,2.478-0.708,4.248-1.947,5.84c-1.416,1.416-3.186,2.124-5.309,2.124c-2.124,0-4.071-0.708-5.309-2.124
				c-1.416-1.416-1.947-3.363-1.947-5.84v-0.354H-92.485z M-88.237,180.767c0,1.416,0.354,2.655,0.885,3.363
				c0.531,0.708,1.416,1.239,2.478,1.239s1.77-0.354,2.301-1.239c0.531-0.708,0.885-1.947,0.885-3.717
				c0-1.416-0.354-2.655-0.885-3.363c-0.531-0.885-1.416-1.239-2.478-1.239c-1.062,0-1.77,0.354-2.301,1.239
				C-88.06,177.758-88.237,178.997-88.237,180.767z"/>
			<path fill="#FFFFFF" d="M-66.291,176.697c-0.531,0-1.062-0.177-1.416-0.177c-1.593,0-2.655,0.531-3.186,1.593v10.265h-4.248
				v-15.574h3.894l0.177,1.947c0.885-1.416,1.947-2.124,3.54-2.124c0.531,0,0.885,0,1.239,0.177V176.697z"/>
			<path fill="#FFFFFF" d="M-65.229,180.413c0-2.478,0.531-4.248,1.77-5.84c1.062-1.416,2.655-2.124,4.602-2.124
				c1.77,0,3.009,0.531,4.071,1.77l0.177-1.416h3.717v15.044c0,1.416-0.354,2.478-0.885,3.54c-0.531,1.062-1.416,1.77-2.655,2.301
				c-1.062,0.531-2.478,0.708-3.894,0.708c-1.062,0-2.301-0.177-3.363-0.708c-1.062-0.531-1.947-1.062-2.478-1.77l1.77-2.478
				c1.062,1.239,2.301,1.77,3.717,1.77c1.062,0,1.947-0.354,2.655-0.885c0.531-0.531,0.885-1.416,0.885-2.478v-0.885
				c-0.885,1.062-2.301,1.593-3.717,1.593c-1.947,0-3.363-0.708-4.602-2.124C-64.698,185.015-65.229,183.068-65.229,180.413
				L-65.229,180.413z M-60.982,180.767c0,1.416,0.354,2.478,0.885,3.363c0.531,0.885,1.416,1.239,2.301,1.239
				c1.239,0,2.124-0.531,2.655-1.416v-6.548c-0.531-0.885-1.416-1.416-2.655-1.416c-1.062,0-1.77,0.354-2.301,1.239
				C-60.805,177.935-60.982,178.997-60.982,180.767z"/>
		</g>
		<g>
			<path fill="#FFFFFF" d="M100.78,147.671c0-0.531,0.177-1.062,0.531-1.416c0.354-0.354,0.885-0.531,1.593-0.531
				c0.531,0,1.062,0.177,1.593,0.531c0.354,0.354,0.531,0.885,0.531,1.416c0,0.531-0.177,1.062-0.531,1.416
				c-0.354,0.354-0.885,0.531-1.593,0.531c-0.531,0-1.062-0.177-1.593-0.531C100.78,148.733,100.78,148.202,100.78,147.671z"/>
			<path fill="#FFFFFF" d="M114.231,146.61c0.708,0,1.239-0.177,1.77-0.531c0.354-0.354,0.708-0.885,0.708-1.593h3.54
				c0,0.885-0.354,1.77-0.708,2.655c-0.531,0.708-1.239,1.416-2.124,1.77c-0.885,0.354-1.947,0.708-3.009,0.708
				c-1.947,0-3.54-0.708-4.779-1.947c-1.239-1.239-1.77-3.009-1.77-5.309v-0.177c0-2.124,0.531-3.894,1.77-5.133
				c1.239-1.239,2.832-1.947,4.779-1.947c1.77,0,3.186,0.531,4.248,1.593c1.062,1.062,1.593,2.301,1.593,4.071h-3.54
				c0-0.708-0.177-1.416-0.708-1.77c-0.354-0.531-1.062-0.708-1.77-0.708c-0.885,0-1.593,0.354-1.947,0.885
				c-0.531,0.708-0.708,1.593-0.708,3.186v0.354c0,1.416,0.177,2.478,0.708,3.186C112.638,146.433,113.346,146.61,114.231,146.61z"
				/>
			<path fill="#FFFFFF" d="M126.266,149.441h-3.717v-19.999h3.717V149.441z"/>
			<path fill="#FFFFFF" d="M137.947,148.025c-0.885,1.062-2.301,1.77-3.894,1.77s-2.655-0.354-3.54-1.239
				c-0.708-0.885-1.239-2.124-1.239-3.894v-9.203h3.717v9.203c0,1.416,0.708,2.124,1.947,2.124c1.239,0,2.124-0.531,2.655-1.416
				v-10.088h3.717v14.159h-3.54L137.947,148.025z"/>
			<path fill="#FFFFFF" d="M157.061,142.539c0,2.301-0.531,4.071-1.416,5.309c-0.885,1.239-2.301,1.947-4.071,1.947
				c-1.593,0-2.832-0.531-3.717-1.77l-0.177,1.416h-3.363v-19.999h3.717v7.256c0.885-1.062,1.947-1.593,3.363-1.593
				c1.77,0,3.009,0.708,4.071,1.947s1.416,3.009,1.416,5.309v0.177H157.061z M153.344,142.185c0-1.416-0.177-2.478-0.708-3.186
				c-0.531-0.708-1.062-1.062-1.947-1.062c-1.239,0-1.947,0.531-2.478,1.416v5.663c0.531,1.062,1.239,1.416,2.478,1.416
				c1.239,0,1.947-0.531,2.478-1.77C153.167,144.309,153.344,143.424,153.344,142.185z"/>
		</g>
		<g>
			<path fill="#FFFFFF" d="M202.191,125.726c0-0.708,0.177-1.416,0.708-1.947c0.531-0.531,1.239-0.708,1.947-0.708
				c0.708,0,1.416,0.177,1.947,0.708c0.531,0.531,0.708,1.062,0.708,1.947c0,0.708-0.177,1.416-0.708,1.77
				c-0.531,0.354-1.239,0.708-1.947,0.708c-0.708,0-1.416-0.177-1.947-0.708C202.368,127.141,202.191,126.434,202.191,125.726z"/>
			<path fill="#FFFFFF" d="M211.748,105.373c0-0.708,0.177-1.239,0.708-1.77c0.531-0.531,1.062-0.708,1.947-0.708
				c0.885,0,1.416,0.177,1.947,0.708c0.531,0.531,0.708,1.062,0.708,1.77s-0.177,1.416-0.708,1.77
				c-0.531,0.531-1.239,0.708-1.947,0.708s-1.416-0.177-1.947-0.708C212.102,106.611,211.748,106.08,211.748,105.373z
				 M217.058,128.203h-4.779v-18.229h4.779V128.203z"/>
			<path fill="#FFFFFF" d="M225.376,109.974l0.177,2.124c1.239-1.593,3.009-2.478,5.132-2.478c1.947,0,3.363,0.531,4.248,1.77
				c0.885,1.062,1.416,2.832,1.416,5.132v11.681h-4.779v-11.681c0-1.062-0.177-1.77-0.708-2.301
				c-0.531-0.531-1.239-0.708-2.301-0.708c-1.416,0-2.301,0.531-3.009,1.77v12.743h-4.779v-18.052H225.376z"/>
			<path fill="#FFFFFF" d="M241.482,128.203v-14.513h-2.655v-3.54h2.655v-1.77c0-1.947,0.531-3.54,1.77-4.779
				c1.239-1.062,2.832-1.77,4.956-1.77c0.708,0,1.416,0.177,2.478,0.354v3.717c-0.354-0.177-0.885-0.177-1.416-0.177
				c-1.77,0-2.655,0.885-2.655,2.655v1.416h3.54v3.54h-3.54v14.513h-5.132V128.203z"/>
			<path fill="#FFFFFF" d="M251.747,118.823c0-1.77,0.354-3.363,1.062-4.779s1.77-2.478,3.009-3.186
				c1.239-0.708,2.832-1.239,4.602-1.239c2.478,0,4.425,0.708,6.017,2.301c1.593,1.416,2.478,3.54,2.655,6.017v1.239
				c0,2.832-0.708,4.956-2.301,6.725s-3.717,2.478-6.194,2.478c-2.478,0-4.779-0.885-6.194-2.478
				c-1.593-1.593-2.301-3.894-2.301-6.902v-0.177H251.747z M256.525,119.177c0,1.77,0.354,3.009,0.885,3.894
				c0.708,0.885,1.593,1.416,2.832,1.416s2.124-0.531,2.832-1.416c0.708-0.885,1.062-2.301,1.062-4.248
				c0-1.77-0.354-3.009-1.062-3.894c-0.708-0.885-1.593-1.416-2.832-1.416c-1.239,0-2.124,0.531-2.832,1.416
				C256.879,115.815,256.525,117.23,256.525,119.177z"/>
		</g>
		<g>
			<path fill="#FFFFFF" d="M-10.896,133.69c0-0.531,0.177-1.062,0.531-1.416c0.354-0.354,0.885-0.531,1.593-0.531
				c0.531,0,1.062,0.177,1.593,0.531c0.354,0.354,0.531,0.885,0.531,1.416s-0.177,1.062-0.531,1.416
				c-0.354,0.354-0.885,0.531-1.593,0.531c-0.531,0-1.062-0.177-1.593-0.531C-10.896,134.752-10.896,134.221-10.896,133.69z"/>
			<path fill="#FFFFFF" d="M2.555,132.805c0.708,0,1.239-0.177,1.77-0.531c0.354-0.354,0.708-0.885,0.708-1.593h3.54
				c0,0.885-0.354,1.77-0.708,2.655c-0.531,0.708-1.239,1.416-2.124,1.77c-0.885,0.354-1.947,0.708-3.009,0.708
				c-1.947,0-3.54-0.708-4.779-1.947s-1.77-3.009-1.77-5.309v-0.177c0-2.124,0.531-3.894,1.77-5.132s2.832-1.947,4.779-1.947
				c1.77,0,3.186,0.531,4.248,1.593s1.593,2.301,1.593,4.071h-3.54c0-0.708-0.177-1.416-0.708-1.77
				c-0.354-0.531-1.062-0.708-1.77-0.708c-0.885,0-1.593,0.354-1.947,0.885c-0.531,0.708-0.708,1.593-0.708,3.186v0.354
				c0,1.416,0.177,2.478,0.708,3.186C0.962,132.451,1.67,132.805,2.555,132.805z"/>
			<path fill="#FFFFFF" d="M9.988,128.38c0-1.416,0.354-2.655,0.885-3.717s1.239-1.947,2.301-2.478
				c1.062-0.531,2.124-0.885,3.54-0.885c1.947,0,3.54,0.531,4.602,1.77c1.239,1.239,1.947,2.832,1.947,4.779v0.885
				c0,2.124-0.531,3.894-1.77,5.132c-1.239,1.239-2.832,1.947-4.779,1.947s-3.717-0.708-4.956-1.947
				C10.696,132.451,9.988,130.681,9.988,128.38L9.988,128.38z M13.705,128.557c0,1.416,0.177,2.301,0.708,3.009
				s1.239,1.062,2.124,1.062c0.885,0,1.593-0.354,2.124-1.062c0.531-0.708,0.708-1.77,0.708-3.363c0-1.239-0.177-2.301-0.708-3.009
				c-0.531-0.708-1.239-1.062-2.124-1.062c-0.885,0-1.593,0.354-2.124,1.062C14.059,125.903,13.705,127.141,13.705,128.557z"/>
			<path fill="#FFFFFF" d="M25.917,133.69c0-0.531,0.177-1.062,0.531-1.416c0.354-0.354,0.885-0.531,1.593-0.531
				c0.531,0,1.062,0.177,1.593,0.531c0.354,0.354,0.531,0.885,0.531,1.416s-0.177,1.062-0.531,1.416
				c-0.354,0.354-0.885,0.531-1.593,0.531c-0.531,0-1.062-0.177-1.593-0.531C26.094,134.752,25.917,134.221,25.917,133.69z"/>
			<path fill="#FFFFFF" d="M33.527,117.761c0-0.531,0.177-1.062,0.531-1.416c0.354-0.354,0.885-0.531,1.593-0.531
				c0.708,0,1.239,0.177,1.593,0.531c0.354,0.354,0.531,0.885,0.531,1.416s-0.177,1.062-0.531,1.416
				c-0.354,0.354-0.885,0.531-1.593,0.531c-0.708,0-1.062-0.177-1.593-0.531C33.704,118.823,33.527,118.292,33.527,117.761z
				 M37.421,135.46h-3.717v-14.159h3.717V135.46z"/>
			<path fill="#FFFFFF" d="M43.969,121.478l0.177,1.593c1.062-1.239,2.301-1.947,4.071-1.947c1.416,0,2.655,0.354,3.363,1.239
				c0.708,0.885,1.062,2.124,1.062,3.894v9.203h-3.717v-9.026c0-0.885-0.177-1.416-0.531-1.77c-0.354-0.354-0.885-0.531-1.77-0.531
				c-1.062,0-1.77,0.531-2.301,1.416v9.911h-3.717v-14.159h3.363V121.478z"/>
		</g>
		<g>
			<path fill="#FFFFFF" d="M232.455,322.53c0-0.885,0.354-1.416,0.885-1.947c0.531-0.531,1.239-0.708,2.124-0.708
				c0.885,0,1.593,0.177,2.124,0.708c0.531,0.531,0.885,1.239,0.885,1.947c0,0.885-0.354,1.416-0.885,1.947
				c-0.531,0.531-1.239,0.708-2.124,0.708c-0.885,0-1.593-0.177-2.124-0.708C232.809,323.946,232.455,323.238,232.455,322.53z"/>
			<path fill="#FFFFFF" d="M242.897,300.761c0-0.708,0.177-1.416,0.708-1.947c0.531-0.531,1.239-0.708,2.124-0.708
				c0.885,0,1.593,0.177,2.124,0.708s0.708,1.062,0.708,1.947c0,0.708-0.177,1.416-0.708,1.947
				c-0.531,0.531-1.239,0.708-2.124,0.708c-0.885,0-1.593-0.177-2.124-0.708C243.074,302.177,242.897,301.469,242.897,300.761z
				 M248.384,325.008h-5.132v-19.291h5.132V325.008z"/>
			<path fill="#FFFFFF" d="M257.233,305.717l0.177,2.301c1.416-1.77,3.186-2.655,5.486-2.655c2.124,0,3.54,0.531,4.602,1.77
				c1.062,1.239,1.593,3.009,1.593,5.309v12.389h-5.132v-12.389c0-1.062-0.177-1.947-0.708-2.301
				c-0.531-0.531-1.239-0.708-2.301-0.708c-1.416,0-2.478,0.708-3.186,1.77v13.628h-5.132V305.54h4.602V305.717z"/>
		</g>
		<g>
			<path fill="#FFFFFF" d="M-147.172,292.266c0-0.708,0.177-1.239,0.708-1.77s1.062-0.708,1.77-0.708s1.416,0.177,1.77,0.708
				c0.531,0.531,0.708,1.062,0.708,1.77c0,0.708-0.177,1.239-0.708,1.77c-0.531,0.354-1.062,0.708-1.77,0.708
				s-1.416-0.177-1.77-0.708C-146.818,293.682-147.172,292.974-147.172,292.266z"/>
			<path fill="#FFFFFF" d="M-131.244,291.204c0.885,0,1.416-0.177,1.947-0.708s0.708-1.062,0.885-1.77h4.248
				c0,1.062-0.354,2.124-0.885,3.186c-0.531,0.885-1.416,1.593-2.478,2.124c-1.062,0.531-2.301,0.708-3.54,0.708
				c-2.478,0-4.248-0.708-5.663-2.301s-2.124-3.54-2.124-6.371v-0.354c0-2.655,0.708-4.602,2.124-6.194
				c1.416-1.593,3.186-2.301,5.663-2.301c2.124,0,3.717,0.531,4.956,1.77c1.239,1.239,1.947,2.832,1.947,4.779h-4.248
				c0-0.885-0.354-1.593-0.885-2.124c-0.531-0.531-1.239-0.885-2.124-0.885c-1.062,0-1.77,0.354-2.301,1.062
				c-0.531,0.708-0.885,1.947-0.885,3.717v0.531c0,1.77,0.177,3.009,0.708,3.717C-133.014,290.85-132.306,291.204-131.244,291.204z"
				/>
			<path fill="#FFFFFF" d="M-122.395,286.072c0-1.593,0.354-3.186,0.885-4.425c0.708-1.239,1.593-2.301,2.832-3.009
				c1.239-0.708,2.655-1.062,4.248-1.062c2.301,0,4.071,0.708,5.486,2.124s2.301,3.186,2.478,5.663v1.062
				c0,2.655-0.708,4.602-2.124,6.194c-1.416,1.593-3.363,2.301-5.84,2.301c-2.478,0-4.425-0.708-5.84-2.301
				c-1.416-1.593-2.124-3.717-2.124-6.371V286.072z M-117.793,286.249c0,1.593,0.354,2.832,0.885,3.717s1.416,1.239,2.655,1.239
				c1.062,0,1.947-0.354,2.478-1.239c0.531-0.885,0.885-2.124,0.885-4.071c0-1.593-0.354-2.832-0.885-3.54
				c-0.531-0.885-1.416-1.239-2.655-1.239c-1.062,0-1.947,0.354-2.478,1.239C-117.616,283.24-117.793,284.479-117.793,286.249z"/>
			<path fill="#FFFFFF" d="M-99.564,277.754l0.177,1.947c1.239-1.416,2.832-2.124,4.779-2.124c2.124,0,3.717,0.885,4.425,2.478
				c1.239-1.77,2.832-2.478,4.956-2.478c1.77,0,3.186,0.531,4.071,1.593c0.885,1.062,1.416,2.655,1.416,4.779v10.619h-4.425v-10.619
				c0-0.885-0.177-1.593-0.531-2.124c-0.354-0.354-1.062-0.708-1.947-0.708c-1.416,0-2.301,0.708-2.832,1.947v11.504h-4.425v-10.619
				c0-0.885-0.177-1.593-0.531-2.124c-0.354-0.354-1.062-0.708-1.947-0.708c-1.239,0-2.124,0.531-2.832,1.593v11.858h-4.425v-16.813
				H-99.564z"/>
		</g>
		<g>
			<path fill="#FFFFFF" d="M162.193,416.508c0-0.885,0.354-1.593,0.885-2.124c0.531-0.531,1.239-0.708,2.124-0.708
				c0.885,0,1.593,0.354,2.124,0.708c0.531,0.531,0.885,1.239,0.885,2.124s-0.354,1.593-0.885,2.124
				c-0.531,0.531-1.239,0.708-2.124,0.708c-0.885,0-1.593-0.177-2.124-0.708C162.547,417.924,162.193,417.216,162.193,416.508z"/>
			<path fill="#FFFFFF" d="M177.768,398.987l0.177,2.301c1.416-1.77,3.363-2.655,5.663-2.655c2.124,0,3.717,0.708,4.779,1.947
				c1.062,1.239,1.593,3.186,1.593,5.663v12.92h-5.309V406.42c0-1.062-0.177-1.947-0.708-2.478
				c-0.531-0.531-1.239-0.708-2.478-0.708c-1.416,0-2.655,0.708-3.363,1.947v14.159h-5.309v-19.999h4.955V398.987z"/>
			<path fill="#FFFFFF" d="M203.253,419.34c-3.009,0-5.309-0.885-7.079-2.655c-1.77-1.77-2.832-4.248-2.832-7.256v-0.531
				c0-1.947,0.354-3.717,1.239-5.309c0.708-1.593,1.947-2.832,3.363-3.717c1.416-0.885,3.009-1.239,4.956-1.239
				c2.655,0,4.956,0.885,6.371,2.655c1.593,1.77,2.301,4.248,2.301,7.256v2.124h-12.743c0.177,1.239,0.708,2.301,1.593,3.186
				c0.885,0.885,1.947,1.239,3.363,1.239c2.124,0,3.717-0.708,4.779-2.301l2.655,3.009c-0.885,1.062-1.947,1.947-3.186,2.655
				C206.439,419.163,205.023,419.34,203.253,419.34z M202.722,403.057c-1.062,0-1.947,0.354-2.655,1.062s-1.062,1.77-1.239,3.009
				h7.433v-0.354c0-1.239-0.354-2.124-0.885-2.832C204.669,403.234,203.784,403.057,202.722,403.057z"/>
			<path fill="#FFFFFF" d="M220.952,394.208v4.956h3.363v3.894h-3.363v9.911c0,0.708,0.177,1.239,0.354,1.593
				c0.354,0.354,0.885,0.531,1.593,0.531c0.531,0,1.062,0,1.593-0.177v4.071c-1.062,0.354-2.124,0.531-3.186,0.531
				c-3.717,0-5.663-1.947-5.663-5.663v-10.796h-3.009v-3.894h3.009v-4.956H220.952z"/>
		</g>
		<g>
			<path fill="#FFFFFF" d="M277.409,222.535c0-0.708,0.177-1.416,0.708-1.77c0.531-0.531,1.062-0.708,1.947-0.708
				c0.708,0,1.416,0.177,1.947,0.708c0.531,0.531,0.708,1.062,0.708,1.77c0,0.708-0.177,1.416-0.708,1.77
				c-0.531,0.531-1.062,0.708-1.947,0.708c-0.708,0-1.416-0.177-1.947-0.708C277.586,223.951,277.409,223.243,277.409,222.535z"/>
			<path fill="#FFFFFF" d="M302.895,216.164c0,2.832-0.531,5.133-1.77,6.725c-1.239,1.593-2.832,2.301-5.132,2.301
				c-1.947,0-3.54-0.708-4.602-2.124l-0.177,1.947h-4.425v-25.309h4.779v9.026c1.062-1.239,2.478-1.947,4.248-1.947
				c2.124,0,3.894,0.708,5.133,2.301c1.239,1.593,1.77,3.894,1.77,6.725v0.354H302.895z M298.116,215.81
				c0-1.77-0.354-3.186-0.885-3.894c-0.531-0.885-1.416-1.239-2.478-1.239c-1.593,0-2.478,0.531-3.186,1.77v7.079
				c0.531,1.239,1.593,1.947,3.186,1.947s2.478-0.708,3.009-2.301C297.939,218.464,298.116,217.403,298.116,215.81z"/>
			<path fill="#FFFFFF" d="M305.726,202.536c0-0.708,0.177-1.239,0.708-1.77c0.531-0.531,1.062-0.708,1.947-0.708
				s1.416,0.177,1.947,0.708c0.531,0.531,0.708,1.062,0.708,1.77s-0.177,1.239-0.708,1.77c-0.531,0.531-1.062,0.708-1.947,0.708
				c-0.708,0-1.416-0.177-1.947-0.708C305.903,203.952,305.726,203.244,305.726,202.536z M310.682,224.836h-4.779v-17.698h4.779
				V224.836z"/>
			<path fill="#FFFFFF" d="M320.062,221.119h8.672v3.894h-14.69v-2.832l8.318-10.973h-8.141v-3.894h14.159v2.832L320.062,221.119z"
				/>
		</g>
		<path fill="#0E0E2E" d="M9.811,529.6v-96.279c0-2.478-1.77-4.602-4.248-4.602c-18.406,0-7.787-29.733-19.999-29.733
			c-0.531,0-0.885,0-1.416,0v130.436H9.811V529.6z"/>
		<path fill="#0F2334" d="M-34.788,529.6c2.655-20.53,7.256-39.821,13.982-54.334l27.786-52.033l4.071-14.336l-11.327-9.203
			c0,0-5.309-6.017-6.194-6.017c-8.849,0.708-12.035,7.964-12.035,7.964l-28.14,61.944c-8.141,17.698-13.805,41.414-16.636,66.014
			H-34.788z"/>
	</g>
</g>
</svg>
