<?xml version="1.0" encoding="utf-8"?>
<!-- Generator: Adobe Illustrator 16.0.0, SVG Export Plug-In . SVG Version: 6.00 Build 0)  -->
<!DOCTYPE svg PUBLIC "-//W3C//DTD SVG 1.1//EN" "http://www.w3.org/Graphics/SVG/1.1/DTD/svg11.dtd">
<svg version="1.1" id="Capa_1" xmlns="http://www.w3.org/2000/svg" xmlns:xlink="http://www.w3.org/1999/xlink" x="0px" y="0px"
	 width="375.963px" height="272.525px" viewBox="0 0 375.963 272.525" enable-background="new 0 0 375.963 272.525"
	 xml:space="preserve">
<g>
	<g>
		<g>
			<polygon fill="#DACDD5" points="167.002,267.596 103.558,267.596 112.731,224.79 157.828,224.79 167.002,267.596 			"/>
			<polygon fill="#C5B2BF" points="163.017,248.991 157.828,224.79 112.731,224.79 107.543,248.991 163.017,248.991 			"/>
			<path fill="#EFF0F0" d="M180.292,272.525H90.266c-4.778,0-5.511-6.321-5.511-6.321h101.047
				C185.802,266.204,185.069,272.525,180.292,272.525L180.292,272.525z"/>
			<path fill="#4C2A42" d="M254.344,216.23c0,5.806-4.703,10.512-10.512,10.512H26.725c-5.806,0-10.511-4.706-10.511-10.512V90.083
				c0-5.808,4.705-10.517,10.511-10.517h217.108c5.809,0,10.512,4.709,10.512,10.517V216.23L254.344,216.23z"/>
			<path fill="#EFF0F0" d="M16.213,213.384v20.687c0,5.806,4.705,10.51,10.511,10.51h217.108c5.809,0,10.512-4.704,10.512-10.51
				v-20.687H16.213L16.213,213.384z"/>
			<polygon fill="#EFF0F0" points="246.664,203.955 23.897,203.955 23.897,89.497 246.664,89.497 246.664,203.955 			"/>
			<path fill="#DACDD5" d="M141.569,228.982c0,3.474-2.816,6.292-6.292,6.292c-3.474,0-6.29-2.818-6.29-6.292
				c0-3.476,2.816-6.293,6.29-6.293C138.753,222.689,141.569,225.507,141.569,228.982L141.569,228.982z"/>
		</g>
		<path fill="#E98C82" d="M103.748,140.354l-8.359,36.909l52.728,11.94l8.357-36.909L103.748,140.354z M153.92,155.41l-20.2,10.671
			l13.434,19.208l-0.398,1.759l-15.386-19.727l-6.832,3.607l-4.612-6.2l-22.382,11.175l0.398-1.757l20.398-11.551l-13.632-18.329
			l0.398-1.758l20.625,23.147l28.586-12.003L153.92,155.41z"/>
		<path fill="#B95D92" d="M318.589,139.628l13.374,20.558l29.37-19.105l-13.374-20.558L318.589,139.628z M348.252,123.115
			l-4.168,14.208l14.994,2.437l0.638,0.979l-16.117-1.763l-1.41,4.805l-4.964-0.658l-4.92,15.447l-0.637-0.978l3.849-14.696
			l-14.675-1.947l-0.638-0.979l20.075,0.874l7.336-18.706L348.252,123.115z"/>
		<path fill="#B95D92" d="M294.566,21.639l15.146,46.376l66.251-21.64L360.815,0L294.566,21.639z M360.05,5.137L344.746,30.3
			l27.566,12.379l0.721,2.209l-30.067-11.662l-5.176,8.51l-9.204-3.813l-17.386,27.161l-0.722-2.208l14.943-26.266l-27.205-11.275
			l-0.722-2.209l38.131,11.984l23.703-32.182L360.05,5.137z"/>
		<path fill="#B95D92" d="M138.708,125.737l26.324,50.308l71.869-37.605l-26.324-50.309L138.708,125.737z M210.687,94.175
			l-12.716,31.83l34.027,8.896l1.254,2.396l-36.759-7.591l-4.302,10.766l-11.298-2.603l-14.72,34.527l-1.252-2.396l12.088-33.026
			l-33.398-7.7l-1.254-2.396l46.074,6.407l21.004-41.507L210.687,94.175z"/>
		<path fill="#EFF0F0" d="M169.845,25.11l2.021,45.523l65.034-2.887l-2.021-45.523L169.845,25.11z M232.903,26.654l-20.071,18.812
			l21.708,18.041l0.096,2.169L210.5,47.652l-6.79,6.362l-7.327-5.735L173.938,68.37l-0.096-2.167l20.023-19.895L172.207,29.35
			l-0.096-2.168l31.311,20.33l29.386-23.025L232.903,26.654z"/>
		<path fill="#EFF0F0" d="M253.604,137.224L241.08,174.44l53.166,17.892l12.524-37.216L253.604,137.224z M303.805,158.063
			l-21.979,8.882l11.839,21.246l-0.597,1.773l-13.798-21.987l-7.433,3.004l-4.106-6.888l-24.284,9.172l0.596-1.771l22.275-9.767
			l-12.136-20.361l0.595-1.773l18.847,26.072l30.773-9.373L303.805,158.063z"/>
		<path fill="#E98C82" d="M260.966,23.237l-43.862,55.298l78.996,62.658l43.861-55.296L260.966,23.237z M333.151,89.073
			l-42.576,1.621l7.068,43.146l-2.089,2.634l-9.93-45.59l-14.4,0.548l-2.746-14.149l-46.65,0.708l2.087-2.633l43.62-2.938
			l-8.112-41.826l2.089-2.634l15.979,55.573l57.75,2.908L333.151,89.073z"/>
	</g>
	<g>
		<g>
			<line fill="none" stroke="#FFFFFF" stroke-width="2" stroke-miterlimit="10" x1="1.057" y1="110.327" x2="1.057" y2="108.327"/>
			<path fill="none" stroke="#FFFFFF" stroke-width="2" stroke-miterlimit="10" stroke-dasharray="5.0645,8.1032" d="M1.057,99.327
				v-12.72c0,0-1.609-18.633,12.365-19.927c10.987-1.018,47.033-0.678,61.933-0.381"/>
			<path fill="none" stroke="#FFFFFF" stroke-width="2" stroke-miterlimit="10" d="M79.318,66.625
				c1.597,0.034,2.496,0.056,2.496,0.056"/>
		</g>
	</g>
	<g>
		<g>
			
				<line fill="none" stroke="#FFFFFF" stroke-width="2" stroke-miterlimit="10" x1="267.057" y1="231.327" x2="267.057" y2="233.327"/>
			<path fill="none" stroke="#FFFFFF" stroke-width="2" stroke-miterlimit="10" stroke-dasharray="4.8122,7.6996" d="
				M267.057,241.327v-0.013c0,0-0.738,6.797-3.153,9.815c-1.353,1.689-7.526,5.828-9.924,6.049
				c-3.889,0.36-7.971,0.604-11.238,0.607"/>
			<path fill="none" stroke="#FFFFFF" stroke-width="2" stroke-miterlimit="10" d="M238.853,257.601
				c-1.554-0.034-2.497-0.077-2.497-0.077"/>
		</g>
	</g>
</g>
</svg>
