<?xml version="1.0" encoding="utf-8"?>
<!-- Generator: Adobe Illustrator 16.0.0, SVG Export Plug-In . SVG Version: 6.00 Build 0)  -->
<!DOCTYPE svg PUBLIC "-//W3C//DTD SVG 1.1//EN" "http://www.w3.org/Graphics/SVG/1.1/DTD/svg11.dtd">
<svg version="1.1" xmlns="http://www.w3.org/2000/svg" xmlns:xlink="http://www.w3.org/1999/xlink" x="0px" y="0px" width="216px"
	 height="216px" viewBox="0 0 216 216" enable-background="new 0 0 216 216" xml:space="preserve">
<g id="cercle">
	<circle fill="#1E91E4" cx="108.021" cy="108.045" r="108"/>
</g>
<g id="visuel">
	<polygon fill="#6BC0FF" points="110.39,53.931 109.318,52.454 107.845,51.384 106.112,50.822 104.557,50.822 102.874,48.504 
		100.538,46.809 97.795,45.917 94.908,45.917 92.161,46.809 89.828,48.504 89.36,49.148 88.366,48.827 86.112,48.827 83.967,49.522 
		82.144,50.847 80.817,52.67 80.121,54.817 80.121,57.072 80.817,59.216 88.131,59.216 93.663,59.216 100.014,59.216 104.57,59.216 
		110.39,59.216 110.952,57.483 110.952,55.662 	"/>
	<polygon fill="#00439C" points="139.534,138.404 135.523,139.708 132.111,142.186 131.432,143.124 129.978,142.65 126.684,142.65 
		123.55,143.667 120.881,145.606 118.946,148.271 117.928,151.405 117.928,154.702 118.946,157.836 129.633,157.836 
		137.715,157.836 146.994,157.836 153.651,157.836 162.156,157.836 162.979,155.306 162.979,152.642 162.156,150.11 160.59,147.956 
		158.437,146.391 155.907,145.57 153.63,145.57 151.173,142.186 147.762,139.708 143.751,138.404 	"/>
	<g>
		<polygon fill="#002F76" points="148.576,153.287 145.064,152.147 141.909,152.147 138.5,147.453 133.766,144.014 129.569,142.65 
			126.684,142.65 123.55,143.667 120.881,145.606 118.946,148.271 117.928,151.405 117.928,154.702 118.946,157.836 
			129.633,157.836 137.715,157.836 146.994,157.836 153.292,157.836 151.563,155.456 		"/>
	</g>
	<rect x="55.291" y="85.636" fill="#6BC0FF" width="13.498" height="3.132"/>
	<rect x="38.593" y="85.636" fill="#6BC0FF" width="13.038" height="3.132"/>
	<rect x="34.829" y="115.125" fill="#6BC0FF" width="13.682" height="3.572"/>
	<rect x="51.974" y="115.125" fill="#6BC0FF" width="6.068" height="3.572"/>
	<rect x="21.059" y="105.516" fill="#6BC0FF" width="16.075" height="3.571"/>
	<rect x="40.743" y="105.516" fill="#FFFFFF" width="18.754" height="3.571"/>
	<rect x="29.17" y="95.312" fill="#FFFFFF" width="32.956" height="3.57"/>
	<g>
		<g>
			<g>
				<g>
					<g>
						<g>
							<polygon fill="#6BC0FF" points="184.521,118.789 181.774,121.536 70.269,121.536 67.521,118.789 							"/>
						</g>
					</g>
				</g>
			</g>
		</g>
		<g>
			<g>
				<polygon opacity="0.2" fill="#005899" points="145.289,106.338 149.622,110.088 149.289,106.338 				"/>
				<g>
					<g>
						<g>
							<polygon fill="#00439C" points="81.397,82.734 78.133,84.997 78.133,84.997 67.521,104.56 70.269,106.821 181.774,106.821 
								184.521,104.56 174.5,84.997 171.236,82.734 							"/>
						</g>
						<g>
							<g>
								<polygon fill="#FFFFFF" points="70.269,101.863 67.521,104.611 67.521,104.611 67.521,118.789 70.269,121.536 
									181.774,121.536 184.521,118.789 184.521,118.789 184.521,104.611 181.774,101.863 								"/>
							</g>
							<polygon fill="#6BC0FF" points="184.521,118.789 181.774,121.536 70.269,121.536 67.521,118.789 							"/>
							<g>
								<g>
									<g>
										<g>
											<g>
												<circle fill="#00439C" cx="75.646" cy="111.699" r="1.898"/>
											</g>
											<g>
												<rect x="159.289" y="113.244" fill="#00439C" width="18.948" height="3.504"/>
												<rect x="159.289" y="106.551" fill="#00439C" width="18.948" height="3.504"/>
											</g>
										</g>
									</g>
								</g>
							</g>
						</g>
					</g>
				</g>
				<g>
					<path fill="#FFFFFF" d="M184.521,104.611"/>
				</g>
			</g>
		</g>
	</g>
	<polygon fill="#6BC0FF" points="145.231,159.281 143.061,156.293 140.073,154.124 136.562,152.983 133.408,152.983 129.997,148.29 
		125.264,144.849 119.7,143.042 113.85,143.042 108.286,144.849 103.555,148.29 102.609,149.59 100.593,148.933 96.022,148.933 
		91.674,150.346 87.976,153.033 85.289,156.73 83.877,161.08 83.877,165.649 85.289,169.999 100.116,169.999 111.326,169.999 
		124.2,169.999 133.435,169.999 145.231,169.999 146.373,166.485 146.373,162.794 	"/>
</g>
<g id="texte">
</g>
</svg>
